<?xml version="1.0" encoding="UTF-8" standalone="no"?>
<!-- Created with Inkscape (http://www.inkscape.org/) -->

<svg
   version="1.1"
   id="svg2"
   width="228.338"
   height="196.722"
   viewBox="0 0 228.338 196.722"
   sodipodi:docname="dalei.svg"
   inkscape:export-filename="dalei.pdf"
   inkscape:export-xdpi="96"
   inkscape:export-ydpi="96"
   inkscape:version="1.2.2 (732a01da63, 2022-12-09)"
   xmlns:inkscape="http://www.inkscape.org/namespaces/inkscape"
   xmlns:sodipodi="http://sodipodi.sourceforge.net/DTD/sodipodi-0.dtd"
   xmlns="http://www.w3.org/2000/svg"
   xmlns:svg="http://www.w3.org/2000/svg">
  <defs
     id="defs6" />
  <sodipodi:namedview
     id="namedview4"
     pagecolor="#ffffff"
     bordercolor="#000000"
     borderopacity="0.25"
     inkscape:showpageshadow="2"
     inkscape:pageopacity="0.0"
     inkscape:pagecheckerboard="0"
     inkscape:deskcolor="#d1d1d1"
     showgrid="false"
     inkscape:zoom="4.1581521"
     inkscape:cx="114.35368"
     inkscape:cy="98.481246"
     inkscape:window-width="1920"
     inkscape:window-height="1001"
     inkscape:window-x="-9"
     inkscape:window-y="-9"
     inkscape:window-maximized="1"
     inkscape:current-layer="g8" />
  <g
     inkscape:groupmode="layer"
     inkscape:label="Image"
     id="g8">
    <path
       style="fill:#000000"
       d="m 28.069328,195.24273 c -2.15259,-2.15259 -2.25786,-1.78998 4.07078,-14.02268 5.60416,-10.83235 9.25325,-21.4889 11.95272,-34.90589 4.10427,-20.39913 5.40507,-27.36107 5.40507,-28.92805 0,-2.1362 -8.66478,-1.52851 -21.63667,1.51745 -13.87423,3.25785 -26.3633297,2.54897 -26.3633297,-1.49639 0,-1.20615 -0.4953,-2.68831 -1.10066003,-3.29367 -1.42594997,-1.42595 0.97793003,-2.11788 7.35995003,-2.11847 3.4704797,-3.2e-4 6.2420697,-0.83727 10.2348497,-3.09065 6.08765,-3.43566 8.28916,-3.81851 9.14423,-1.59022 1.05269,2.74327 17.76963,1.46482 21.97026,-1.6802 1.04755,-0.78431 1.57221,-6.811822 3.04984,-35.037852 0.50782,-9.70045 0.93712,-12.01098 2.49339,-13.41938 4.25663,-3.8522 6.66112,4.61004 4.96745,17.48219 -3.53747,26.885342 -2.55773,29.766552 9.42735,27.723622 8.40502,-1.43269 13.20107,-2.739742 27.95334,-7.618052 3.827812,-1.26578 6.403262,1.34874 5.745202,5.832392 -0.50448,3.4372 -4.787142,5.21728 -12.552202,5.21728 -2.51623,0 -4.80829,0.37753 -5.09347,0.83895 -0.28517,0.46142 -5.37423,1.84785 -11.30901,3.08095 -14.74361,3.06335 -16.54519,4.63469 -18.38983,16.03965 -0.40391,2.49725 -1.03656,5.30611 -1.4059,6.24192 -0.57861,1.46606 -0.17848,1.62146 2.89196,1.1232 3.0185,-0.48984 4.94251,0.2058 12.58049,4.54853 4.95935,2.81974 9.28179,5.1268 9.60542,5.1268 0.32362,0 2.91467,1.51169 5.75787,3.35932 2.84321,1.84763 7.86947,4.41699 11.16947,5.70969 6.014032,2.35587 20.415842,9.5494 30.250002,15.10949 5.22124,2.95202 5.25,2.99527 5.25,7.89489 0,6.28114 -1.92667,6.51021 -9.89649,1.17661 -7.16691,-4.79627 -7.11509,-4.76714 -23.103512,-12.98548 -7.425,-3.81658 -16.875,-8.74678 -21,-10.95598 -24.27601,-13.0014 -25,-13.15491 -25,-5.30093 0,2.0695 -0.7431,6.1769 -1.65134,9.12756 -6.59768,21.43433 -9.66853,29.69029 -12.12081,32.58663 -1.50032,1.772 -3.53636,4.3595 -4.52453,5.75 -2.06644,2.90778 -3.89549,3.19317 -6.13189,0.95677 z M 152.29708,178.22859 c -5.88808,-1.81155 -5.74215,-1.5318 -6.31169,-12.0992 -0.2613,-4.84838 -0.78307,-13.76523 -1.15949,-19.81523 -0.37641,-6.05 -0.58364,-11.39919 -0.4605,-11.88708 0.12314,-0.48789 -0.66688,-2.7821 -1.7556,-5.09824 -3.92806,-8.35661 -0.23896,-13.51403 9.66804,-13.51605 3.69603,-7.5e-4 10.32006,-0.63407 14.72006,-1.40737 4.4,-0.7733 10.025,-1.53574 12.5,-1.6943 2.475,-0.15856 5.175,-0.62659 6,-1.04006 24.98999,-12.524342 40.06991,-3.5821 34.18751,20.27286 -2.33729,9.47847 -4.37396,27.52825 -4.07701,36.13223 0.10937,3.16909 -0.11773,6.07858 -0.50468,6.46552 -0.80515,0.80516 -1.48402,0.87184 -23.06534,2.2656 -8.77774,0.56689 -18.67774,1.47194 -22,2.01124 -7.9711,1.29394 -12.06011,1.15797 -17.7413,-0.58992 z m 13.67333,-7.42974 c 7.72847,-0.0196 8.12057,-0.32806 9.43091,-7.41835 2.51478,-13.60759 2.17123,-14.24667 -8.03483,-14.94654 -3.64728,-0.2501 -7.59851,-1.05437 -8.78051,-1.78727 -3.41629,-2.11824 -4.11308,0.31717 -3.91036,13.66747 0.21056,13.86633 0.24904,14.01492 3.11043,12.01072 1.33687,-0.93637 4.44839,-1.51654 8.18436,-1.52603 z m 38.76341,-5.73469 c 3.55642,-2.7488 3.55846,-2.75503 4.68436,-14.25 0.61951,-6.325 1.62582,-14.2 2.23624,-17.5 2.73817,-14.80273 1.55392,-16.91286 -8.76014,-15.60909 -22.16334,2.80162 -22.13232,2.78333 -20.47176,12.07528 l 1.25701,7.03381 h 5.28674 c 5.64032,0 6.85044,0.8029 7.91279,5.25 0.49168,2.05818 0.27479,2.78145 -0.86211,2.875 -0.83548,0.0687 -1.96905,0.2375 -2.51905,0.375 -0.55,0.1375 -2.10747,0.30625 -3.46104,0.375 -5.65641,0.2873 -9.78713,16.47683 -5.33896,20.925 2.55629,2.55629 16.0764,1.51036 20.03592,-1.55 z M 165.43873,139.9507 c 9.51386,-1.01655 10.68251,-2.21573 8.4958,-8.71771 -2.43611,-7.24353 -2.98126,-7.66636 -8.86643,-6.87699 -10.21818,1.37055 -15.67125,5.8642 -12.76447,10.51868 0.65685,1.05179 1.19427,3.00595 1.19427,4.34258 0,2.65663 1.827,3.85845 3.66491,2.4108 0.6407,-0.50465 4.36486,-1.25946 8.27592,-1.67736 z m 1.2711,-35.38654 c -1.49529,-1.80948 -2.01634,-5.865502 -3.69332,-28.750002 -2.38901,-32.60121 -1.96763,-31.6047 -12.28911,-29.06198 -17.37553,4.2805 -24.37852,8.63757 -24.1088,14.99986 0.26487,6.24821 1.189,7.24441 5.18877,5.59339 1.75479,-0.72434 7.80303,-1.50948 13.44053,-1.74475 l 10.25,-0.42777 v 3.75935 c 0,5.38995 -2.95444,5.722 -31.38702,3.52761 -5.25632,-0.40568 -6.05476,-1.85287 -8.12646,-14.72948 -2.03376,-12.64085 -0.72668,-16.72068 4.46651,-13.94137 2.61506,1.39954 8.45745,0.60057 15.33399,-2.09699 2.63286,-1.03283 5.713,-1.87787 6.84476,-1.87787 1.13176,0 5.17897,-0.94804 8.99379,-2.10676 l 6.93605,-2.10676 -0.28081,-11.61904 -0.28081,-11.61903 -7.5,-0.37415 c -15.98425,-0.7974 -16.37285,-7.2815501 -0.5,-8.3429501 5.5,-0.36778 12.925,-1.18537 16.5,-1.81688 10.59617,-1.87177004 14.99127,-2.26799004 15.1424,-1.36512004 1.26978,7.58532004 1.13827,7.71258004 -9.2293,8.93108004 -6.84371,0.8043501 -9.79999,2.6460501 -7.90757,4.9262701 0.72064,0.86832 1.56853,5.46031 1.89838,10.28125 l 0.59609,8.71209 3,-0.24246 c 1.65,-0.13336 4.125,-0.46981 5.5,-0.74768 1.375,-0.27786 5.425,-0.91968 9,-1.42626 18.30455,-2.59377 22.12484,-3.18173 29.5,-4.54023 12.23643,-2.25394 11.97659,-2.32282 13.32825,3.53292 3.18368,13.79246 -1.38457,25.88769 -10.39461,27.52152 -3.33083,0.604 -3.74673,-0.92187 -1.58042,-5.79828 6.94635,-15.63643 4.5362,-17.84697 -14.85322,-13.62307 -2.475,0.53917 -7.98938,1.3506 -12.25419,1.80319 -9.282,0.98501 -17.72889,2.87048 -19.62435,4.38043 -1.31362,1.04645 -0.96881,22.0554 0.47512,28.94975 0.62719,2.99459 3.16641,22.10211 3.71301,27.940172 0.46481,4.96443 -3.16553,7.04821 -6.09766,3.5 z m -38.2207,-10.755422 c -1.90146,-1.17516 2.47338,-6.84909 5.82516,-7.55494 1.47599,-0.31082 3.70693,-0.77318 4.95765,-1.02747 3.77616,-0.76774 15.31096,1.64576 15.96095,3.33962 1.32447,3.45151 -1.03025,4.56106 -10.28798,4.84769 -4.92086,0.15235 -10.34968,0.48083 -12.06406,0.72994 -1.71438,0.24912 -3.69066,0.0984 -4.39172,-0.33484 z m 51.17128,-5.87298 c -3.29223,-2.0868 -0.87219,-5.59376 4.33749,-6.28559 2.75,-0.3652 9.66573,-1.4209 15.36828,-2.34601 10.71444,-1.73817 15.81576,-0.80536 11.93191,2.18182 -3.7416,2.87776 -29.11298,8.05007 -31.63768,6.44978 z m -2.63408,-19.0756 c -0.38534,-0.62348 -0.21577,-1.7178 0.3768,-2.43181 0.59258,-0.71402 0.84142,-1.53421 0.55298,-1.82265 -0.64892,-0.64891 8.62466,-5.14744 14.04179,-6.81154 2.2,-0.67583 6.5212,-2.0728 9.60267,-3.10439 7.41215,-2.48137 8.093,-2.39762 10.16989,1.25106 2.88934,5.07597 -0.16258,6.88832 -14.15857,8.40792 -3.5123,0.38135 -7.7873,1.50907 -9.5,2.50606 -4.10404,2.38902 -10.17023,3.48638 -11.08556,2.00535 z"
       id="path170" />
  </g>
</svg>
