<?xml version="1.0" encoding="UTF-8" standalone="no"?>
<!-- Created with Inkscape (http://www.inkscape.org/) -->

<svg
   version="1.1"
   id="svg2"
   width="212.776"
   height="212.79201"
   viewBox="0 0 212.776 212.79201"
   sodipodi:docname="logo.pdf"
   xmlns:inkscape="http://www.inkscape.org/namespaces/inkscape"
   xmlns:sodipodi="http://sodipodi.sourceforge.net/DTD/sodipodi-0.dtd"
   xmlns="http://www.w3.org/2000/svg"
   xmlns:svg="http://www.w3.org/2000/svg">
  <defs
     id="defs6">
    <clipPath
       clipPathUnits="userSpaceOnUse"
       id="clipPath46">
      <path
         d="m 43.082,40.887 h 73.293 V 110.11 H 43.082 Z"
         id="path44" />
    </clipPath>
    <clipPath
       clipPathUnits="userSpaceOnUse"
       id="clipPath54">
      <path
         d="M 0,0 H 160 V 160 H 0 Z"
         id="path52" />
    </clipPath>
    <clipPath
       clipPathUnits="userSpaceOnUse"
       id="clipPath58">
      <path
         d="M 0,0 H 160 V 160 H 0 Z"
         id="path56" />
    </clipPath>
    <clipPath
       clipPathUnits="userSpaceOnUse"
       id="clipPath62">
      <path
         d="m 43.082,40.887 h 73.293 V 110.11 H 43.082 Z"
         id="path60" />
    </clipPath>
    <clipPath
       clipPathUnits="userSpaceOnUse"
       id="clipPath66">
      <path
         d="M 0,0 H 160 V 160 H 0 Z"
         id="path64" />
    </clipPath>
    <clipPath
       clipPathUnits="userSpaceOnUse"
       id="clipPath70">
      <path
         d="m 44,41 h 71 v 68 H 44 Z"
         id="path68" />
    </clipPath>
    <clipPath
       clipPathUnits="userSpaceOnUse"
       id="clipPath74">
      <path
         d="m 71.512,67.273 8.277,11.399 V 41.793 Z M 79.789,78.672 71.512,67.273 H 44.719 L 66.398,83.02 58.121,108.5 79.789,78.672 V 92.758 L 101.473,108.5 93.184,83.02 79.789,78.672 93.184,83.02 114.863,67.273 79.789,78.672 114.863,67.273 H 88.07 L 79.789,41.793 Z M 58.121,108.5 79.789,92.758 V 78.672 Z"
         id="path72" />
    </clipPath>
    <clipPath
       clipPathUnits="userSpaceOnUse"
       id="clipPath78">
      <path
         d="M 0,0 H 160 V 160 H 0 Z"
         id="path76" />
    </clipPath>
    <clipPath
       clipPathUnits="userSpaceOnUse"
       id="clipPath82">
      <path
         d="M 0,0 H 160 V 160 H 0 Z"
         id="path80" />
    </clipPath>
    <clipPath
       clipPathUnits="userSpaceOnUse"
       id="clipPath86">
      <path
         d="m 44.719,41.793 h 70.145 V 108.5 H 44.719 Z"
         id="path84" />
    </clipPath>
    <clipPath
       clipPathUnits="userSpaceOnUse"
       id="clipPath90">
      <path
         d="M 0,0 H 160 V 160 H 0 Z"
         id="path88" />
    </clipPath>
    <clipPath
       clipPathUnits="userSpaceOnUse"
       id="clipPath94">
      <path
         d="m 44.719,41.793 h 70.145 V 108.5 H 44.719 Z"
         id="path92" />
    </clipPath>
    <radialGradient
       fx="0"
       fy="0"
       cx="0"
       cy="0"
       r="16.810087"
       gradientUnits="userSpaceOnUse"
       gradientTransform="matrix(2.03595,0,0,2.03595,79.791924,75.147847)"
       spreadMethod="pad"
       id="radialGradient236">
      <stop
         style="stop-opacity:1;stop-color:#e0d62c"
         offset="0"
         id="stop96" />
      <stop
         style="stop-opacity:1;stop-color:#e1d62b"
         offset="0.25"
         id="stop98" />
      <stop
         style="stop-opacity:1;stop-color:#e1d52b"
         offset="0.34375"
         id="stop100" />
      <stop
         style="stop-opacity:1;stop-color:#e1d42b"
         offset="0.382813"
         id="stop102" />
      <stop
         style="stop-opacity:1;stop-color:#e2d42b"
         offset="0.417969"
         id="stop104" />
      <stop
         style="stop-opacity:1;stop-color:#e2d32b"
         offset="0.453125"
         id="stop106" />
      <stop
         style="stop-opacity:1;stop-color:#e2d22a"
         offset="0.484375"
         id="stop108" />
      <stop
         style="stop-opacity:1;stop-color:#e3d12a"
         offset="0.515625"
         id="stop110" />
      <stop
         style="stop-opacity:1;stop-color:#e3d02a"
         offset="0.542969"
         id="stop112" />
      <stop
         style="stop-opacity:1;stop-color:#e4cf29"
         offset="0.570313"
         id="stop114" />
      <stop
         style="stop-opacity:1;stop-color:#e4cf29"
         offset="0.59375"
         id="stop116" />
      <stop
         style="stop-opacity:1;stop-color:#e4ce29"
         offset="0.605469"
         id="stop118" />
      <stop
         style="stop-opacity:1;stop-color:#e5ce29"
         offset="0.617188"
         id="stop120" />
      <stop
         style="stop-opacity:1;stop-color:#e5cd29"
         offset="0.628906"
         id="stop122" />
      <stop
         style="stop-opacity:1;stop-color:#e5cc28"
         offset="0.648438"
         id="stop124" />
      <stop
         style="stop-opacity:1;stop-color:#e6cc28"
         offset="0.65625"
         id="stop126" />
      <stop
         style="stop-opacity:1;stop-color:#e6cb28"
         offset="0.664063"
         id="stop128" />
      <stop
         style="stop-opacity:1;stop-color:#e6cb28"
         offset="0.671875"
         id="stop130" />
      <stop
         style="stop-opacity:1;stop-color:#e6ca28"
         offset="0.679688"
         id="stop132" />
      <stop
         style="stop-opacity:1;stop-color:#e6ca28"
         offset="0.6875"
         id="stop134" />
      <stop
         style="stop-opacity:1;stop-color:#e7c927"
         offset="0.695313"
         id="stop136" />
      <stop
         style="stop-opacity:1;stop-color:#e7c827"
         offset="0.710938"
         id="stop138" />
      <stop
         style="stop-opacity:1;stop-color:#e7c827"
         offset="0.71875"
         id="stop140" />
      <stop
         style="stop-opacity:1;stop-color:#e8c727"
         offset="0.726563"
         id="stop142" />
      <stop
         style="stop-opacity:1;stop-color:#e8c727"
         offset="0.734375"
         id="stop144" />
      <stop
         style="stop-opacity:1;stop-color:#e8c626"
         offset="0.742188"
         id="stop146" />
      <stop
         style="stop-opacity:1;stop-color:#e9c626"
         offset="0.75"
         id="stop148" />
      <stop
         style="stop-opacity:1;stop-color:#e9c526"
         offset="0.757813"
         id="stop150" />
      <stop
         style="stop-opacity:1;stop-color:#e9c426"
         offset="0.769531"
         id="stop152" />
      <stop
         style="stop-opacity:1;stop-color:#eac325"
         offset="0.78125"
         id="stop154" />
      <stop
         style="stop-opacity:1;stop-color:#eac225"
         offset="0.792969"
         id="stop156" />
      <stop
         style="stop-opacity:1;stop-color:#ebc125"
         offset="0.804688"
         id="stop158" />
      <stop
         style="stop-opacity:1;stop-color:#ebc125"
         offset="0.808594"
         id="stop160" />
      <stop
         style="stop-opacity:1;stop-color:#ebc125"
         offset="0.8125"
         id="stop162" />
      <stop
         style="stop-opacity:1;stop-color:#ebc024"
         offset="0.816406"
         id="stop164" />
      <stop
         style="stop-opacity:1;stop-color:#ecbf24"
         offset="0.824219"
         id="stop166" />
      <stop
         style="stop-opacity:1;stop-color:#ecbf24"
         offset="0.832031"
         id="stop168" />
      <stop
         style="stop-opacity:1;stop-color:#ecbe24"
         offset="0.839844"
         id="stop170" />
      <stop
         style="stop-opacity:1;stop-color:#edbd23"
         offset="0.847656"
         id="stop172" />
      <stop
         style="stop-opacity:1;stop-color:#edbc23"
         offset="0.855469"
         id="stop174" />
      <stop
         style="stop-opacity:1;stop-color:#edbc23"
         offset="0.863281"
         id="stop176" />
      <stop
         style="stop-opacity:1;stop-color:#eebb23"
         offset="0.871094"
         id="stop178" />
      <stop
         style="stop-opacity:1;stop-color:#eeba22"
         offset="0.878906"
         id="stop180" />
      <stop
         style="stop-opacity:1;stop-color:#eeba22"
         offset="0.882813"
         id="stop182" />
      <stop
         style="stop-opacity:1;stop-color:#efb922"
         offset="0.886719"
         id="stop184" />
      <stop
         style="stop-opacity:1;stop-color:#efb922"
         offset="0.890625"
         id="stop186" />
      <stop
         style="stop-opacity:1;stop-color:#efb822"
         offset="0.894531"
         id="stop188" />
      <stop
         style="stop-opacity:1;stop-color:#efb822"
         offset="0.898438"
         id="stop190" />
      <stop
         style="stop-opacity:1;stop-color:#efb822"
         offset="0.902344"
         id="stop192" />
      <stop
         style="stop-opacity:1;stop-color:#f0b721"
         offset="0.90625"
         id="stop194" />
      <stop
         style="stop-opacity:1;stop-color:#f0b621"
         offset="0.910156"
         id="stop196" />
      <stop
         style="stop-opacity:1;stop-color:#f0b521"
         offset="0.917969"
         id="stop198" />
      <stop
         style="stop-opacity:1;stop-color:#f1b521"
         offset="0.925781"
         id="stop200" />
      <stop
         style="stop-opacity:1;stop-color:#f1b420"
         offset="0.933594"
         id="stop202" />
      <stop
         style="stop-opacity:1;stop-color:#f2b320"
         offset="0.941406"
         id="stop204" />
      <stop
         style="stop-opacity:1;stop-color:#f2b220"
         offset="0.945313"
         id="stop206" />
      <stop
         style="stop-opacity:1;stop-color:#f2b220"
         offset="0.949219"
         id="stop208" />
      <stop
         style="stop-opacity:1;stop-color:#f2b120"
         offset="0.953125"
         id="stop210" />
      <stop
         style="stop-opacity:1;stop-color:#f3b11f"
         offset="0.957031"
         id="stop212" />
      <stop
         style="stop-opacity:1;stop-color:#f3b01f"
         offset="0.960938"
         id="stop214" />
      <stop
         style="stop-opacity:1;stop-color:#f3b01f"
         offset="0.964844"
         id="stop216" />
      <stop
         style="stop-opacity:1;stop-color:#f3af1f"
         offset="0.96875"
         id="stop218" />
      <stop
         style="stop-opacity:1;stop-color:#f4af1f"
         offset="0.972656"
         id="stop220" />
      <stop
         style="stop-opacity:1;stop-color:#f4ae1f"
         offset="0.976563"
         id="stop222" />
      <stop
         style="stop-opacity:1;stop-color:#f4ae1e"
         offset="0.980469"
         id="stop224" />
      <stop
         style="stop-opacity:1;stop-color:#f5ad1e"
         offset="0.984375"
         id="stop226" />
      <stop
         style="stop-opacity:1;stop-color:#f5ad1e"
         offset="0.988281"
         id="stop228" />
      <stop
         style="stop-opacity:1;stop-color:#f5ac1e"
         offset="0.992188"
         id="stop230" />
      <stop
         style="stop-opacity:1;stop-color:#f5ab1e"
         offset="0.996094"
         id="stop232" />
      <stop
         style="stop-opacity:1;stop-color:#f5ab1e"
         offset="1"
         id="stop234" />
    </radialGradient>
  </defs>
  <sodipodi:namedview
     id="namedview4"
     pagecolor="#ffffff"
     bordercolor="#000000"
     borderopacity="0.25"
     inkscape:showpageshadow="2"
     inkscape:pageopacity="0.0"
     inkscape:pagecheckerboard="0"
     inkscape:deskcolor="#d1d1d1"
     showgrid="false" />
  <g
     id="g10"
     inkscape:groupmode="layer"
     inkscape:label="Page 1"
     transform="scale(1.3333333)">
    <g
       id="g12">
      <path
         d="m 79.789,157.348 c -42.762,0 -77.547,-34.793 -77.547,-77.559 0,-42.762 34.785,-77.547 77.547,-77.547 42.766,0 77.559,34.785 77.559,77.547 0,42.766 -34.793,77.559 -77.559,77.559"
         style="fill:#fff900;fill-opacity:1;fill-rule:evenodd;stroke:none"
         id="path14" />
      <path
         d="M 79.789,0 C 35.797,0 0,35.797 0,79.789 c 0,44.008 35.797,79.805 79.789,79.805 44,0 79.793,-35.797 79.793,-79.805 C 159.582,35.797 123.789,0 79.789,0 m 0,4.477 c 41.598,0 75.316,33.722 75.316,75.312 0,41.598 -33.718,75.316 -75.316,75.316 -41.59,0 -75.312,-33.718 -75.312,-75.316 0,-41.59 33.722,-75.312 75.312,-75.312"
         style="fill:#fff900;fill-opacity:1;fill-rule:nonzero;stroke:none"
         id="path16" />
      <path
         d="m 79.789,4.477 c -41.59,0 -75.312,33.722 -75.312,75.312 0,41.598 33.722,75.316 75.312,75.316 41.598,0 75.316,-33.718 75.316,-75.316 0,-41.59 -33.718,-75.312 -75.316,-75.312 m 0,0.105 c 20.09,0 38.981,7.824 53.184,22.027 14.211,14.207 22.031,33.094 22.031,53.18 0,20.094 -7.82,38.981 -22.031,53.184 -14.203,14.211 -33.094,22.039 -53.184,22.039 -20.086,0 -38.973,-7.828 -53.18,-22.039 C 12.406,118.77 4.582,99.883 4.582,79.789 4.582,59.703 12.406,40.816 26.609,26.609 40.816,12.406 59.703,4.582 79.789,4.582"
         style="fill:#000000;fill-opacity:1;fill-rule:nonzero;stroke:none"
         id="path18" />
      <path
         d="m 79.789,26.984 c -29.16,0 -52.805,23.645 -52.805,52.805 0,29.168 23.645,52.809 52.805,52.809 29.164,0 52.809,-23.641 52.809,-52.809 0,-29.16 -23.645,-52.805 -52.809,-52.805 m 0,0.106 c 29.063,0 52.707,23.64 52.707,52.699 0,29.07 -23.644,52.707 -52.707,52.707 C 50.73,132.496 27.09,108.859 27.09,79.789 27.09,50.73 50.73,27.09 79.789,27.09"
         style="fill:#000000;fill-opacity:1;fill-rule:nonzero;stroke:none"
         id="path20" />
      <path
         d="m 128.48,79.789 c 0,26.891 -21.8,48.684 -48.691,48.684 -26.887,0 -48.676,-21.793 -48.676,-48.684 0,-26.879 21.789,-48.676 48.676,-48.676 26.891,0 48.691,21.797 48.691,48.676"
         style="fill:#2f7cc1;fill-opacity:1;fill-rule:evenodd;stroke:none"
         id="path22" />
      <path
         d="m 67.473,120.605 1.757,-0.246 -1.382,4.391 1.207,0.398 c 0.254,-0.382 2.011,-5.871 2.035,-6.421 -1.692,-0.356 -0.586,-0.055 -1.996,0.464 -0.707,0.254 -1.621,0.207 -1.621,1.414 m 18.894,0.254 1.137,-0.195 c 0.152,-0.437 0.351,-1.703 1.219,-0.91 0.914,0.844 -0.563,1.465 -0.563,1.465 l 0.211,0.937 c 0.43,-0.101 0.906,-0.367 1.297,-0.14 0.437,0.254 0.852,1.793 -0.363,1.937 -0.629,0.082 -0.703,-0.215 -0.836,-0.683 l -1.196,0.539 c 0.598,2.437 4.872,1.164 4.106,-1.422 -0.246,-0.817 -0.645,-1.176 -1.59,-1.254 0.207,-0.477 0.707,-1.133 0.332,-1.848 -0.516,-0.961 -1.933,-1.066 -2.629,-0.707 -0.941,0.461 -1.34,1.176 -1.125,2.281 m -5.48,-1.007 -0.34,3.425 c 0.254,0.129 0.359,0.168 0.723,0.184 0.835,0.039 0.628,-0.859 1.664,-0.43 0.953,0.407 0.668,1.758 0.129,2.301 -0.895,0.117 -0.981,-0.297 -1.403,-0.797 l -1.222,0.223 c 0.753,3.531 6.074,1.004 4.093,-1.949 -0.531,-0.801 -1.25,-1.106 -2.547,-0.809 0.051,-1.441 -0.046,-0.805 2.422,-1.098 l -0.129,-1.265 z m -4.285,3.546 c -0.039,0.555 -0.207,1.145 -0.559,1.383 -0.723,0.5 -0.902,-0.121 -1.141,-0.554 l -1.242,-0.036 c 0.11,2.239 2.711,2.301 3.707,1.09 0.817,-0.984 1.09,-3.894 0.262,-5.074 -0.938,-1.324 -3.156,-1.383 -3.816,0.606 -0.622,1.828 0.921,3.546 2.789,2.585 m -1.114,-2.886 c 1.153,-0.692 1.606,1.707 0.711,2.121 -1.297,0.597 -1.527,-1.637 -0.711,-2.121"
         style="fill:#f3eb00;fill-opacity:1;fill-rule:evenodd;stroke:none"
         id="path24" />
      <path
         d="m 84.859,116.652 c 3.942,-0.136 7.926,-0.285 11.887,-0.199 1.949,0.051 3.906,0.129 5.84,0.16 1.383,0.024 4.793,0.305 5.914,0.106 -0.699,-0.422 -4.316,-1.106 -5.406,-1.281 -3.832,-0.614 -8.891,-0.731 -12.731,-0.168 -1.125,0.168 -4.925,0.835 -5.504,1.382 m -33.777,0.09 c 1.629,0.149 4.199,-0.09 5.941,-0.129 1.93,-0.031 3.895,-0.109 5.836,-0.16 2.004,-0.047 4.055,0 6.067,0.016 1.926,0.019 3.922,0.191 5.808,0.168 -0.566,-0.492 -4.312,-1.184 -5.371,-1.344 -3.886,-0.594 -8.863,-0.469 -12.754,0.129 -1.273,0.199 -4.699,0.777 -5.527,1.32 m 56.281,-2.164 c -0.769,-3.18 -1.55,-6.379 -2.32,-9.566 -2.93,-0.637 -7.078,-1.266 -12.066,-1.133 -5.622,0.152 -10.153,1.203 -13.188,2.125 -3.027,-0.922 -7.562,-1.973 -13.184,-2.125 -4.988,-0.133 -9.14,0.496 -12.062,1.133 -0.957,3.234 -1.91,6.48 -2.863,9.718 2.043,-0.566 4.277,-1.058 6.703,-1.402 8.605,-1.226 16.047,-0.117 21.406,1.258 5.441,-1.391 12.871,-2.473 21.422,-1.258 2.199,0.309 4.262,0.75 6.152,1.25 m 3.231,2.211 c -2.395,-0.875 -5.172,-1.68 -8.289,-2.211 -9.469,-1.617 -17.496,0.047 -22.516,1.59 -5.016,-1.543 -13.039,-3.207 -22.512,-1.59 -3.117,0.531 -5.894,1.336 -8.289,2.211 l 4.258,-12.766 c 3.078,-0.812 7.442,-1.597 12.684,-1.429 5.91,0.187 10.679,1.527 13.859,2.687 3.191,-1.16 7.957,-2.5 13.863,-2.687 5.243,-0.168 9.61,0.617 12.684,1.429 z m -27.676,-1.519 0.363,2.472 -7.711,-0.008 0.356,-2.464 z"
         style="fill:#f3eb00;fill-opacity:1;fill-rule:nonzero;stroke:none"
         id="path26" />
      <g
         id="g28">
        <path
           d="m 67.145,73.355 c 0,21.204 5.664,38.399 12.644,38.399 6.984,0 12.649,-17.195 12.649,-38.399 0,-21.199 -5.665,-38.386 -12.649,-38.386 -6.98,0 -12.644,17.187 -12.644,38.386 z"
           style="fill:none;stroke:#f3eb00;stroke-width:1.80589;stroke-linecap:butt;stroke-linejoin:miter;stroke-miterlimit:10;stroke-dasharray:9.56082, 2.01763;stroke-dashoffset:0;stroke-opacity:1"
           id="path30" />
      </g>
      <g
         id="g32">
        <path
           d="m 65.938,96.738 c 18.363,10.602 36.082,14.293 39.574,8.246 C 109.004,98.934 96.953,85.438 78.59,74.836 60.227,64.234 42.508,60.547 39.016,66.59 c -3.493,6.055 8.566,19.551 26.922,30.148 z"
           style="fill:none;stroke:#f3eb00;stroke-width:1.80589;stroke-linecap:butt;stroke-linejoin:miter;stroke-miterlimit:10;stroke-dasharray:9.56082, 2.01763;stroke-dashoffset:0;stroke-opacity:1"
           id="path34" />
      </g>
      <g
         id="g36">
        <path
           d="m 80.992,74.836 c -18.355,10.602 -30.41,24.098 -26.922,30.148 3.493,6.047 21.211,2.356 39.575,-8.246 18.363,-10.597 30.41,-24.093 26.921,-30.148 -3.492,-6.043 -21.211,-2.356 -39.574,8.246 z"
           style="fill:none;stroke:#f3eb00;stroke-width:1.80589;stroke-linecap:butt;stroke-linejoin:miter;stroke-miterlimit:10;stroke-dasharray:9.56082, 2.01763;stroke-dashoffset:0;stroke-opacity:1"
           id="path38" />
      </g>
    </g>
    <g
       id="g40">
      <g
         id="g42"
         clip-path="url(#clipPath46)">
        <g
           id="g48">
          <g
             id="g50" />
          <g
             id="g336">
            <g
               clip-path="url(#clipPath54)"
               id="g334">
              <g
                 id="g332">
                <g
                   id="g308">
                  <g
                     id="g238" />
                  <g
                     id="g306">
                    <g
                       clip-path="url(#clipPath58)"
                       id="g304">
                      <g
                         id="g240" />
                      <g
                         id="g302">
                        <g
                           clip-path="url(#clipPath62)"
                           id="g300">
                          <g
                             id="g298">
                            <g
                               id="g242" />
                            <g
                               id="g296">
                              <g
                                 clip-path="url(#clipPath66)"
                                 id="g294">
                                <g
                                   id="g244" />
                                <g
                                   id="g292">
                                <g
                                   clip-path="url(#clipPath70)"
                                   id="g290">
                                <g
                                   clip-path="url(#clipPath74)"
                                   id="g288">
                                <g
                                   id="g286">
                                <g
                                   id="g246" />
                                <g
                                   id="g284">
                                <g
                                   clip-path="url(#clipPath78)"
                                   id="g282">
                                <g
                                   id="g280">
                                <g
                                   id="g278">
                                <g
                                   id="g248" />
                                <g
                                   id="g276">
                                <g
                                   clip-path="url(#clipPath82)"
                                   id="g274">
                                <g
                                   id="g250" />
                                <g
                                   id="g272">
                                <g
                                   clip-path="url(#clipPath86)"
                                   id="g270">
                                <g
                                   id="g268">
                                <g
                                   id="g252" />
                                <g
                                   id="g266">
                                <g
                                   clip-path="url(#clipPath90)"
                                   id="g264">
                                <g
                                   id="g262">
                                <g
                                   id="g260">
                                <g
                                   clip-path="url(#clipPath94)"
                                   id="g258">
                                <g
                                   id="g256">
                                <path
                                   d="m 44.719,41.793 h 70.145 V 108.5 H 44.719 Z"
                                   style="fill:url(#radialGradient236);stroke:none"
                                   id="path254" />
                                </g>
                                </g>
                                </g>
                                </g>
                                </g>
                                </g>
                                </g>
                                </g>
                                </g>
                                </g>
                                </g>
                                </g>
                                </g>
                                </g>
                                </g>
                                </g>
                                </g>
                                </g>
                                </g>
                              </g>
                            </g>
                          </g>
                        </g>
                      </g>
                    </g>
                  </g>
                </g>
                <path
                   d="M 79.789,46.621 V 78.664 L 72.594,68.762 Z"
                   style="fill:#cd281f;fill-opacity:1;fill-rule:nonzero;stroke:none"
                   id="path310" />
                <path
                   d="m 110.273,68.762 -30.484,9.902 7.199,-9.902 z"
                   style="fill:#cd281f;fill-opacity:1;fill-rule:nonzero;stroke:none"
                   id="path312" />
                <path
                   d="M 98.633,104.59 79.789,90.902 V 78.664 Z"
                   style="fill:#cd281f;fill-opacity:1;fill-rule:nonzero;stroke:none"
                   id="path314" />
                <path
                   d="M 79.789,78.664 60.957,104.59 68.148,82.441 Z"
                   style="fill:#cd281f;fill-opacity:1;fill-rule:nonzero;stroke:none"
                   id="path316" />
                <path
                   d="M 79.789,78.664 68.148,82.441 49.316,68.762 Z"
                   style="fill:#cd281f;fill-opacity:1;fill-rule:nonzero;stroke:none"
                   id="path318" />
                <path
                   d="m 86.988,68.762 -7.199,9.902 V 46.613 Z"
                   style="fill:#b0271f;fill-opacity:1;fill-rule:nonzero;stroke:none"
                   id="path320" />
                <path
                   d="M 110.273,68.762 91.434,82.449 79.789,78.664 Z"
                   style="fill:#b0271f;fill-opacity:1;fill-rule:nonzero;stroke:none"
                   id="path322" />
                <path
                   d="M 79.789,78.664 49.316,68.762 h 23.278 z"
                   style="fill:#b0271f;fill-opacity:1;fill-rule:nonzero;stroke:none"
                   id="path324" />
                <path
                   d="M 98.633,104.59 79.789,78.664 91.434,82.441 Z"
                   style="fill:#b0271f;fill-opacity:1;fill-rule:nonzero;stroke:none"
                   id="path326" />
                <path
                   d="M 79.789,78.664 V 90.91 l -18.832,13.68 z"
                   style="fill:#b0271f;fill-opacity:1;fill-rule:nonzero;stroke:none"
                   id="path328" />
                <path
                   d="m 76.219,74.527 c -0.27,0 -0.539,-0.007 -0.809,0 -0.105,0.008 -0.199,0.032 -0.305,0.047 -0.117,0.024 -0.238,0.168 -0.23,0.293 0.008,0.168 0.016,0.336 0.043,0.504 0.141,0.961 0.02,1.891 -0.281,2.805 -0.149,0.445 -0.324,0.883 -0.492,1.332 -0.055,0.156 -0.129,0.316 -0.168,0.472 -0.016,0.051 0.031,0.122 0.066,0.176 0.008,0.016 0.062,0.016 0.094,0.008 0.062,-0.016 0.125,-0.039 0.183,-0.078 1.828,-1.273 2.809,-3.063 3.133,-5.242 0.016,-0.11 -0.113,-0.285 -0.223,-0.293 -0.335,-0.024 -0.667,-0.047 -1.011,-0.063 0,0.008 0,0.024 0,0.039 m 7.636,11.11 c 0.27,0 0.54,-0.008 0.813,-0.016 0.223,0 0.414,-0.094 0.531,-0.262 0.301,-0.406 0.598,-0.82 0.867,-1.25 0.348,-0.539 0.313,-0.707 -0.316,-0.984 -0.312,-0.145 -0.605,-0.301 -0.918,-0.445 -0.133,-0.059 -0.285,-0.016 -0.371,0.078 -0.191,0.199 -0.352,0.414 -0.531,0.621 -0.137,0.168 -0.321,0.262 -0.528,0.269 -0.312,0.016 -0.613,0.016 -0.922,0.016 -2.847,0.016 -5.703,0.031 -8.558,0.039 -0.301,0.008 -0.602,0.035 -0.906,0.051 -0.086,0.008 -0.161,0.156 -0.118,0.246 0.211,0.461 0.426,0.914 0.661,1.375 0.078,0.16 0.226,0.238 0.41,0.246 0.238,0.008 0.476,0.016 0.715,0.016 z M 78.398,71.09 c 1.051,0 2.102,-0.016 3.157,0.008 0.558,0.011 1.086,-0.063 1.523,-0.438 0.078,-0.07 0.164,-0.133 0.258,-0.156 0.098,-0.016 0.227,-0.035 0.297,0.016 0.344,0.222 0.668,0.468 0.992,0.707 0.246,0.183 0.281,0.32 0.137,0.613 -0.668,1.324 -0.637,2.68 -0.199,4.062 0.261,0.844 0.683,1.614 1.167,2.364 0.168,0.254 0.344,0.5 0.512,0.761 0.063,0.098 0.016,0.278 -0.09,0.36 -0.019,0.015 -0.047,0.047 -0.078,0.062 -0.527,0.313 -1.051,0.621 -1.582,0.926 -0.207,0.117 -0.367,0.07 -0.535,-0.121 -0.394,-0.473 -0.707,-0.996 -0.984,-1.543 -0.485,-0.977 -0.782,-2.02 -1.008,-3.086 -0.152,-0.699 -0.246,-1.398 -0.235,-2.117 0,-0.172 -0.007,-0.348 -0.046,-0.508 -0.024,-0.082 -0.121,-0.191 -0.192,-0.199 -0.23,-0.047 -0.469,-0.063 -0.707,-0.063 -1.597,-0.008 -3.187,0 -4.789,0.008 -0.269,0 -0.539,-0.016 -0.808,-0.023 -0.145,-0.008 -0.278,-0.071 -0.344,-0.192 -0.215,-0.383 -0.414,-0.773 -0.492,-1.211 -0.008,-0.054 0.046,-0.148 0.086,-0.156 0.16,-0.039 0.328,-0.074 0.496,-0.074 1.152,0 2.312,0 3.464,0 z"
                   style="fill:#f3eb00;fill-opacity:1;fill-rule:nonzero;stroke:none"
                   id="path330" />
              </g>
            </g>
          </g>
        </g>
      </g>
    </g>
    <g
       id="g338">
      <path
         d="m 59.105,135.367 c -0.046,-0.023 -2.132,-0.898 -2.488,-0.898 -0.262,1.105 0.328,0.062 0.199,1.105 l -2.273,5.774 c -1.043,2.593 -0.727,0.621 -1.379,1.773 0.16,0.359 0.106,0.246 0.621,0.43 0.27,0.094 0.485,0.176 0.766,0.269 l 1.086,0.383 c 0.019,0.008 0.058,0.008 0.074,0.008 0.016,0 0.055,-0.008 0.07,-0.008 l 0.121,-0.035 c 0.571,-0.879 -0.367,-0.012 -0.152,-1.047 0.039,-0.215 0.328,-0.844 0.445,-1.152 0.301,-0.758 0.586,-1.457 0.891,-2.203 0.324,-0.821 0.59,-1.496 0.914,-2.293 0.145,-0.34 0.297,-0.809 0.469,-1.129 0.429,-0.821 0.484,-0.063 0.867,-0.629 -0.055,-0.348 0.023,-0.164 -0.231,-0.348 M 36.859,122.172 c 0.86,-0.922 2.196,-0.348 1.133,-1.289 -0.758,-0.668 -1.133,-1.285 -1.711,-1.469 -0.269,0.668 0.157,0.586 -0.351,1.145 -0.285,0.308 -0.539,0.554 -0.844,0.875 -0.586,0.613 -1.098,1.136 -1.684,1.75 -0.566,0.589 -1.16,1.113 -1.726,1.711 -1.836,1.921 -1.098,0.222 -1.981,1.175 0.239,0.485 0.723,0.7 1.09,1.098 0.27,0.293 0.781,1.105 1.145,0.73 0.55,-0.562 -0.215,-0.078 0.105,-0.8 l 1.582,-1.641 c 0.371,-0.398 0.731,-0.668 1.113,-1.055 0.383,-0.394 0.684,-0.726 1.067,-1.117 0.379,-0.406 0.683,-0.707 1.062,-1.113 M 10.848,86.203 c -0.145,0.469 0.015,2.266 0.113,2.797 0.203,0.09 0.187,0.207 0.508,0 0.195,-0.137 0.039,-0.094 0.246,-0.324 0.379,-0.438 2.308,-0.399 3.195,-0.446 1.449,-0.07 3.317,-0.308 4.695,-0.253 0.286,0.324 0.211,0.421 0.77,0.402 0.102,-0.363 0.008,-1.781 -0.047,-2.274 L 20.176,85.52 c -0.906,0.132 0.023,0.285 -0.731,0.562 -0.078,0.031 -0.945,0.078 -1.105,0.086 l -6.641,0.465 c -0.476,-0.375 -0.062,-0.492 -0.851,-0.43 m 136.617,5.539 c -0.184,-0.101 -2.656,-0.902 -3.047,-0.703 0.031,0.777 0.355,0.254 1.437,1.316 0.508,0.504 0.852,1.004 0.469,1.879 -0.715,0.161 -4.992,-1.027 -5.996,-1.273 -0.515,-0.133 -0.969,-0.215 -1.476,-0.359 -1.243,-0.356 -0.036,-1.079 -0.926,-0.848 -0.192,0.055 -0.18,-0.016 -0.309,0.652 l -0.383,2.16 c 0.805,0.059 0.153,-0.378 1.082,-0.316 l 3.653,0.859 c 0.777,0.176 1.582,0.371 2.402,0.555 2.613,0.598 0.676,0.867 1.867,0.988 0.262,-0.328 1.192,-4.289 1.227,-4.91 M 40.688,123.73 c 0.128,-0.531 -0.5,-0.816 -0.852,-1.144 -0.621,-0.57 -0.813,-0.906 -1.207,-0.938 -0.344,0.614 0.133,0.551 -0.25,1.231 -0.684,1.226 -4.285,7 -4.445,7.582 l 0.55,0.375 c 0.454,-0.168 1.719,-1.106 2.164,-1.434 l 5.153,-3.547 c 0.812,-0.277 0.722,0.262 1.121,-0.335 -0.137,-0.262 -1.129,-1.207 -1.449,-1.336 -0.778,0.55 -0.047,0.144 -0.133,1.132 -0.606,0.446 -1.313,0.914 -1.934,1.352 -0.508,0.363 -1.367,1.062 -1.98,1.297 l 2.426,-4.192 c 0.582,0.008 0.421,0.157 0.836,-0.043 m 95.792,-8.96 c -0.269,0.453 0.071,0.539 0.407,0.753 1.066,0.668 1.343,2.071 0.34,2.364 -0.961,0.293 -3.094,-1.067 -3.762,-1.465 -0.883,-0.524 -2.594,-1.621 -3.078,-2.305 -0.762,-1.051 0.437,-1.164 1.297,-1.051 0.914,0.114 1.519,0.645 1.91,-0.054 -0.309,-0.278 -2.379,-1.551 -2.758,-1.621 -0.457,0.554 -0.164,0.261 -0.289,1.054 -1.895,0.672 -1.02,2.887 -0.063,3.985 1.899,2.164 6.391,4.359 7.809,1.609 0.383,-0.75 0.223,-1.641 -0.207,-2.226 -0.27,-0.383 -0.414,-0.438 -0.77,-0.727 -0.16,-0.125 -0.25,-0.231 -0.39,-0.301 -0.121,-0.062 -0.094,-0.055 -0.215,-0.062 -0.238,-0.024 -0.102,-0.016 -0.231,0.047 m 1.965,-38.247 c -0.015,0.114 0,0.325 0.008,0.446 0.055,1.121 -0.152,2.371 0.43,2.273 0.609,-0.101 -0.168,-0.402 1.027,-0.812 2.528,-0.856 4.817,-1.907 7.403,-1.461 0.308,0.597 -0.122,0.644 0.644,0.574 0.238,-0.383 0.102,-2.57 -0.008,-3.063 -1.226,-0.191 -0.023,0.395 -0.949,0.602 -0.859,0.203 -3.355,-0.055 -4.102,-0.254 -0.82,-0.223 -1.609,-0.437 -2.441,-0.66 -1.902,-0.5 -0.758,-0.984 -2.012,-1.008 l 0.118,2.082 c 1.113,0.031 -0.301,-1.097 2.117,-0.375 0.59,0.176 1.75,0.43 2.226,0.719 -0.73,0.277 -2.91,1.098 -3.625,1.129 -0.375,-0.527 -0.019,-0.606 -0.718,-0.551 -0.18,0.281 -0.063,-0.047 -0.118,0.359 M 13.121,78.512 c -0.254,0.093 -1.062,0.293 -1.328,0.316 -1.137,0.129 -0.184,-0.398 -1.121,-0.476 -0.231,0.382 -0.168,2.531 -0.047,2.91 0.805,0.054 0.238,-0.199 0.883,-0.578 0.347,-0.207 3.172,-0.797 3.683,-0.907 1.485,-0.328 3.504,-0.711 4.907,-1.148 0.285,-1.07 -0.09,-0.938 -1.828,-1.352 l -6.707,-1.652 c -0.786,-0.406 0.023,-0.551 -1.016,-0.637 0,0.637 -0.129,1.657 0.125,2.133 1.012,-0.266 -0.301,-1.035 2.48,-0.422 z m 0.727,-0.153 0.019,-1.461 c 0.774,0.149 2.438,0.434 2.992,0.778 z m 53.285,59.289 c -0.656,-0.152 -1.903,-0.546 -2.348,-0.484 -0.097,0.883 0.199,0.285 0.438,0.906 l 0.23,4.207 c 0.078,1.106 -0.351,3.418 -0.652,3.723 -0.43,0.438 -0.555,-0.191 -0.668,0.754 l 2.926,0.703 0.144,-0.406 c -0.246,-0.422 -0.621,-0.106 -0.43,-1.121 0.54,-2.879 0.985,-3.078 2.45,-5.59 1.129,-1.938 1.136,-0.824 1.484,-1.649 -0.266,-0.316 -1.73,-0.644 -2.09,-0.683 -0.031,0.969 0.055,0.293 0.477,0.914 -0.031,0.5 -1.485,2.926 -1.821,3.394 -0.101,-0.793 -0.304,-3.156 -0.16,-3.855 0.621,-0.305 0.489,0.238 0.742,-0.453 -0.199,-0.328 -0.296,-0.262 -0.722,-0.36 m 49.109,0.907 c 0.348,-0.278 0.156,-0.024 0.348,-0.426 0.437,-0.941 0.375,-0.328 1.445,-0.836 1.809,-0.859 1.258,-2.641 0.274,-3.883 -1.45,-1.82 -6.348,-0.961 -6.051,-2.933 0.219,-1.504 2.129,-0.247 2.789,0.246 0.539,0.406 0.391,0.34 1.004,0.121 -0.153,-0.457 -1.496,-2.524 -1.879,-2.676 -0.469,0.422 -0.246,0.504 -0.637,0.844 -1.031,0.297 -1.328,0.105 -1.82,1.043 -0.391,0.738 -0.324,1.535 0.07,2.211 1.274,2.195 4.199,1.449 5.957,2.511 0.582,0.36 1.02,1.157 0.391,1.805 -0.559,0.566 -1.567,0.176 -2.133,-0.172 -1.266,-0.781 -0.945,-0.933 -1.723,-0.629 0.141,0.317 1.536,2.528 1.965,2.774 M 11.652,84.023 c 0.371,-0.168 2.864,-0.261 3.364,-0.285 1.445,-0.09 3.156,-0.265 4.57,-0.238 -0.356,0.922 -1.645,1.098 -2.383,1.27 -0.89,0.207 -0.273,0.582 -0.273,0.582 0.015,0.007 0.058,0.023 0.09,0.023 0.429,0.094 2.671,-0.145 3.156,-0.176 0.07,-0.644 -0.063,-4.676 -0.238,-5.09 -0.094,-0.117 -0.313,-0.117 -0.446,-0.129 l -1.265,0.067 C 17.688,80.055 16.98,80 16.508,80.184 c 0.012,0.593 -0.008,0.5 0.59,0.562 0.437,0.047 0.535,0.039 0.98,0.16 0.633,0.164 1.16,0.27 1.375,0.84 -1.496,0.02 -3.156,0.168 -4.66,0.274 -5.551,0.363 -2.77,-0.391 -4.199,-0.422 -0.008,0.558 0.054,1.129 0.078,1.675 0.078,1.379 -0.086,1.196 0.344,1.411 0.507,-0.262 0.054,-0.407 0.636,-0.661 m 36.637,57.125 c 0.953,0.493 0.766,-0.5 1.656,0.516 1.438,1.641 3.395,0.629 3.93,-1.336 0.395,-1.496 -0.227,-2.551 -0.641,-3.785 -0.507,-1.527 -1.117,-3.039 0.887,-2.91 0.348,0.531 0.484,0.836 0.445,1.742 -0.015,0.34 -0.136,0.813 -0.136,1.066 -0.008,0.485 0,0.317 0.437,0.563 0.207,-0.238 1.352,-2.344 1.336,-2.766 l -0.047,-0.183 c -0.691,-0.231 -0.527,0.277 -1.058,-0.168 -0.207,-0.172 -0.414,-0.469 -0.715,-0.66 -0.692,-0.438 -1.481,-0.27 -2.11,0.128 -3.043,1.922 1.481,7.125 -0.406,8.301 -0.738,0.465 -1.429,-0.203 -1.605,-0.879 -0.215,-0.797 -0.125,-1.211 -0.055,-1.937 l -0.008,-0.555 -0.582,-0.14 c -0.262,0.5 -1.328,2.613 -1.328,3.003 m 75.801,-20.097 c 1.437,0.023 1.914,0.867 2.941,1.242 l 0.285,-0.336 -2.496,-2.398 -3.722,3.593 c 0.336,0.418 1.972,2.266 2.425,2.434 l 0.274,-0.168 c -0.145,-0.668 -1.434,-2.066 -1.035,-3 0.636,0.352 1.066,1.09 1.59,1.641 0.277,0.293 0.55,0.461 0.828,0.761 l 2.34,2.469 c 1.668,1.785 -0.036,1.168 0.992,1.875 0.261,-0.191 0.437,-0.476 0.707,-0.73 0.261,-0.258 0.445,-0.422 0.707,-0.668 1.535,-1.457 0.113,-0.828 -0.34,-0.852 z m -65.606,18.117 c 0.59,0.074 0.496,0.176 0.735,-0.355 0.332,-0.758 0.867,-1.84 1.746,-2.079 l -2.192,7.938 c -0.293,0.09 -0.949,-0.086 -0.675,0.476 0.125,0.27 2.621,0.821 2.933,0.86 0.223,-0.973 -0.015,-0.27 -0.328,-0.899 -0.183,-0.367 0.637,-2.91 0.758,-3.371 0.199,-0.797 0.406,-1.511 0.602,-2.258 0.105,-0.402 0.218,-0.804 0.312,-1.171 l 0.246,-0.813 c 0.168,-0.316 0,-0.047 0.176,-0.226 0.793,2.234 0.152,2.128 0.398,3.082 l 0.438,0.113 c 0.211,-0.383 0.801,-2.863 0.816,-3.348 l -4.992,-1.304 z m 39.207,-1.949 c 2.223,-0.598 1.965,1.09 2.977,1.679 l 0.461,-0.136 -1.129,-2.828 -4.367,1.269 c -0.438,0.152 -0.309,0.008 -0.469,0.344 0.254,0.863 0.445,-0.086 0.797,0.808 l 2.25,7.129 c 0.031,0.817 -0.676,0.071 -0.336,0.895 0.367,0.121 0.781,-0.102 1.48,-0.293 0.469,-0.141 1.122,-0.207 1.375,-0.523 l -0.062,-0.399 -0.723,-0.129 c -0.312,-0.949 -0.902,-2.519 -1.097,-3.578 1.605,0.168 1.257,1.559 1.933,1.387 0.133,-0.199 0.203,0.125 0.071,-0.539 l -1.106,-3.492 -0.5,0.171 c -0.035,0.926 0.117,1.368 -0.558,1.84 -0.254,-0.429 -1.075,-3.109 -0.997,-3.605 M 30.508,112.293 c -0.781,0.535 0.101,0.527 -0.59,1.219 -0.23,0.222 -0.809,0.597 -1.121,0.828 -0.852,0.629 -3.863,2.988 -4.59,3.203 -1.074,0.32 -2.066,-0.969 -1.168,-1.859 l 4.445,-3.348 c 0.254,-0.191 0.891,-0.742 1.133,-0.82 0.832,-0.301 2.02,0.882 0.235,-1.543 -0.84,-1.145 -0.411,-1.004 -1,-0.914 -0.399,0.605 0.316,0.574 -0.676,1.25 -0.414,0.277 -0.715,0.507 -1.059,0.777 -2.773,2.164 -6.019,3.516 -4.047,6.023 1.758,2.231 3.293,0.633 4.852,-0.519 0.723,-0.539 1.437,-1.067 2.18,-1.606 1.66,-1.234 1.324,-1.171 2.281,-0.699 l 0.316,-0.344 c -0.148,-0.382 -0.906,-1.351 -1.191,-1.648 m 49.027,31.152 c 0.008,-0.777 0.008,-1.566 0,-2.351 0,-0.821 -0.238,-1.633 0.766,-1.41 0.844,0.199 0.922,0.496 1.226,1.203 0.141,0.34 0.203,0.636 0.325,0.937 0.16,0.414 0.168,0.422 0.691,0.344 l -0.254,-3.109 -5.074,0.117 c -0.102,0.972 0,0.269 0.519,0.875 l 0.063,7.785 c -0.063,0.199 -0.399,0.137 -0.484,0.59 -0.043,0.207 -0.008,0.137 0.019,0.312 0.52,-0.011 2.539,0.035 2.984,-0.203 0.016,-1.058 -0.289,-0.078 -0.613,-0.762 l -0.109,-3.66 c 1.511,0.36 0.433,1.918 1.668,1.856 0.105,-0.66 0.035,-1.473 0,-2.141 -0.032,-0.82 0.113,-2.043 -0.293,-2.109 -0.59,0.105 -0.223,-0.196 -0.414,0.465 -0.117,0.421 -0.184,1.261 -1.02,1.261 m 35.289,-4.093 c -0.215,-0.606 -0.844,-1.512 -1.207,-2.157 -0.406,-0.73 -0.789,-1.367 -1.211,-2.113 -0.398,-0.691 -0.804,-1.387 -1.218,-2.109 -1.141,-1.973 -0.149,-1.328 -0.387,-2.243 -0.215,-0.007 -1.879,0.731 -1.832,1.02 0.105,0.699 0.695,-0.152 1.289,0.777 l 2.062,3.762 c -1.578,-1.027 -3.613,-2.809 -5.011,-3.691 -0.43,0.105 -1.789,0.804 -1.934,1.164 l 0.098,0.301 0.816,-0.063 c 0.899,1.32 2.418,4.199 3.391,5.867 1.062,1.832 -0.492,1.328 0.375,2.035 0.379,-0.172 0.586,-0.316 0.941,-0.547 1.547,-0.996 0.305,-0.675 -0.234,-0.96 -0.407,-0.215 -2.961,-5.125 -3.102,-5.465 l 4.922,3.64 c 0.477,0.352 1.082,0.868 1.606,1.18 z m 23.629,-59.75 c -0.199,0.562 0.047,0.484 0.16,0.875 0.133,0.461 -0.152,0.562 -0.258,0.898 -0.492,1.629 2.012,2.988 4.231,3.23 1.773,0.188 4.879,-0.035 5.519,-1.972 0.329,-1.004 -0.109,-1.363 -0.402,-1.992 0.285,-0.387 0.633,-0.332 0.395,-0.942 -0.961,-0.344 -3.317,0.117 -3.942,-0.183 -0.574,-0.266 0.063,-0.465 -0.867,-0.336 l -0.098,2.558 c 1.059,0.2 0.207,-0.125 0.997,-0.554 0.14,-0.063 3.316,-0.301 3.402,0.714 -0.309,1.266 -3.402,0.852 -4.563,0.79 -0.906,-0.055 -1.672,-0.008 -2.562,-0.168 -1.414,-0.262 -1.559,-0.352 -1.543,-1.114 0.43,-0.351 0.668,-0.547 1.242,-0.773 0.856,-0.332 1.453,-0.164 1.422,-0.68 -0.137,-0.344 0.062,-0.098 -0.254,-0.254 z m -46.07,59.089 c 0.531,-0.722 1.555,-0.039 1.836,0.27 0.867,0.949 0.207,1.398 1.289,1.297 l -0.598,-2.711 c -0.73,-0.074 -4.055,0.73 -5.012,0.898 0.122,0.883 0.262,0.176 0.676,0.844 0.192,0.309 0.66,3.051 0.766,3.594 0.148,0.801 0.293,1.644 0.461,2.504 0.527,2.84 -0.461,1.121 -0.121,2.261 l 0.191,0.047 c 0.031,0.008 0.063,0.016 0.098,0.016 0.031,0 0.062,0 0.101,0 l 2.196,-0.414 c 0.843,-0.168 1.672,-0.332 2.531,-0.488 0,-0.532 -0.184,-1.153 -0.289,-1.668 -0.047,-0.254 -0.106,-0.516 -0.149,-0.77 -0.144,-0.703 -0.16,-0.551 -0.273,-0.668 -0.5,0.172 -0.359,0.309 -0.445,0.938 -0.141,0.929 -0.555,2.132 -1.688,2.019 -0.348,-0.555 -0.73,-2.984 -0.824,-3.863 0.605,0.07 0.851,0.371 1.062,0.769 0.426,0.778 0.036,0.899 0.895,0.723 -0.023,-0.652 -0.289,-1.551 -0.43,-2.226 -0.406,-1.883 -0.16,-1.805 -0.859,-1.79 -0.192,0.399 0.223,1.481 -0.828,1.829 -0.199,-0.629 -0.578,-2.68 -0.586,-3.411 m -46.852,-7.5 c 0.278,-0.191 1.629,-1.964 1.766,-2.363 -1.152,-0.723 -3.301,-2.535 -4.113,-2.973 -0.7,0.586 0.168,0.254 -0.215,1.161 l -3.664,4.933 c -0.129,0.164 -0.645,0.914 -0.742,0.977 -0.661,0.492 -0.399,-0.262 -1.083,0.375 l 4.106,3.219 c 0.371,-0.239 0.754,-0.805 1.082,-1.207 0.367,-0.477 1,-1.051 0.746,-1.329 -0.277,-0.296 -0.883,0.278 -1.652,0.653 -0.606,0.285 -1.297,0.379 -1.887,-0.067 -0.262,-0.418 0.676,-1.422 1.012,-1.843 0.261,-0.321 0.945,-1.297 1.308,-1.504 0.375,1.343 -0.308,1.625 -0.203,2.226 0.586,0.192 0.485,0.008 0.891,-0.554 l 1.883,-2.579 -0.309,-0.293 c -0.715,0.293 -0.715,0.977 -1.957,0.653 0.184,-0.414 1.688,-2.563 2.289,-2.824 0.504,0.253 0.981,0.714 0.883,1.535 -0.156,1.398 -0.899,1.273 -0.141,1.804 m 71.598,-4.175 c 0.996,-1.789 2.625,0.422 3.398,0.152 0.047,-0.414 -1.312,-2.07 -1.656,-2.379 l -4.094,3.141 c 0.621,0.703 0.184,0.273 0.754,0.367 0.352,0.055 0.485,0.285 0.684,0.566 l 3.43,4.477 c 0.199,0.277 0.398,0.508 0.601,0.777 0.621,0.813 -0.617,2.082 1.551,0.399 l 2.879,-2.211 c -0.356,-0.836 -1.367,-1.735 -1.738,-2.594 -0.598,0.215 -0.536,0.258 -0.329,0.879 0.336,0.984 0.782,2.711 -0.699,2.851 -0.523,-0.859 -2.019,-2.605 -2.234,-3.117 1.941,-0.254 1.035,1.168 2.418,0.621 -0.223,-0.461 -2.332,-3.101 -2.649,-3.316 l -0.324,0.207 c 0.238,1.035 0.668,0.691 0.195,2.027 -0.324,-0.215 -2.058,-2.394 -2.187,-2.847 m -82.844,-9.383 c 0.16,0.73 0.215,0.699 -0.305,1.207 l -3.042,2.57 2.55,-5.394 c -0.332,-0.571 -0.691,-0.832 -1.113,-1.328 -0.156,-0.192 -0.332,-0.579 -0.645,-0.286 -0.332,0.313 0.012,0 0.106,0.836 -1.418,1.399 -3.156,2.711 -4.223,3.754 -2.472,2.426 -1.988,0.539 -2.808,1.43 0.109,0.351 1.144,1.488 1.465,1.641 l 0.285,-0.239 c -0.008,-0.574 -0.535,-0.59 0.644,-1.64 l 2.649,-2.266 c 0.34,-0.297 0.992,-0.754 1.297,-1.027 l -3.438,7.144 c 0.16,0.27 0.324,0.445 0.598,0.586 0.508,-0.285 1.726,-1.469 2.226,-1.91 0.707,-0.625 1.528,-1.231 2.242,-1.883 l 1.657,-1.43 c 0.277,-0.261 0.269,-0.343 0.73,-0.296 0.34,0.035 0.524,0.359 0.754,-0.047 0.168,-0.301 -0.031,-0.364 -0.269,-0.637 -0.278,-0.316 -0.661,-0.852 -0.946,-1.113 z m 106.977,-10.602 c 2.441,0.899 0.578,0.875 1.765,1.289 0.227,-0.238 0.325,-0.644 0.457,-1.004 0.059,-0.16 0.145,-0.359 0.192,-0.515 0.168,-0.582 0.144,-0.223 0,-0.36 -0.477,-0.476 -0.34,-0.023 -0.875,0.223 -0.102,0.016 -5.223,-1.559 -5.684,-2.043 l 6.488,-0.492 c 0.907,-0.059 1.161,0.016 1.36,-0.359 0.055,-0.102 0.098,-0.36 0.121,-0.485 l -8.281,-3.031 c -0.024,-0.125 -0.039,-0.367 -0.071,-0.492 -0.086,-0.414 0.129,-0.129 -0.16,-0.399 -0.508,0.016 -0.461,0.367 -0.66,0.844 -0.133,0.344 -0.301,0.699 -0.406,1.039 0.797,0.649 0.336,-0.219 1.195,-0.18 0.422,0.024 3.746,1.122 4.176,1.461 -1.027,0.219 -5.481,0.297 -5.934,0.559 -0.316,0.23 -0.765,1.797 -0.8,2.133 0.886,0.406 0.281,-0.5 1.253,-0.352 z m -13.946,10.711 c 0.192,-0.562 0.805,-0.961 1.575,-0.859 1.172,0.152 1.234,0.828 1.847,0.351 -0.008,-0.406 -0.031,-0.261 -0.398,-0.543 l -1.645,-1.429 c -0.429,0.367 -3.277,3.593 -3.367,3.922 0.758,0.73 0.297,-0.336 1.094,0.269 0.348,0.262 0.668,0.547 0.93,0.793 l 3.777,3.215 c 2.082,1.734 0.254,1.098 1.254,1.918 0.215,-0.098 0.676,-0.613 0.91,-0.891 l 2.512,-2.84 c -0.239,-0.515 -1.95,-2.156 -2.34,-2.25 l -0.277,0.27 c 0.199,0.883 1.695,2.195 0.582,3.437 -0.559,0.036 -0.704,-0.23 -1.012,-0.48 l -2.297,-2.02 c 1.078,-0.468 1.43,-0.062 2.137,0.415 0.152,-0.176 0.183,-0.223 0.312,-0.422 -0.422,-0.477 -2.703,-2.547 -3.199,-2.758 l -0.254,0.402 c 0.391,0.629 0.813,0.781 0.621,1.91 -0.453,-0.199 -1.687,-1.367 -2.148,-1.742 -0.157,-0.125 -0.184,-0.133 -0.356,-0.324 -0.289,-0.32 -0.097,-0.047 -0.258,-0.344 m -24.492,17.625 c 0.571,-0.512 1.36,-0.429 1.93,0.031 0.871,0.684 0.66,1.219 1.32,1.012 0.145,-0.414 -0.722,-2.164 -1.054,-2.609 l -4.184,1.734 c -0.598,0.285 -0.32,0.07 -0.43,0.406 0.422,0.653 0.508,-0.183 0.922,0.715 l 1.391,3.309 c 0.32,0.762 0.621,1.469 0.957,2.242 0.109,0.238 0.441,0.953 0.476,1.129 0.137,0.723 -0.527,0.355 -0.047,1.074 0.157,0.133 4.54,-1.887 4.747,-2.051 -0.102,-0.48 -0.383,-1.027 -0.586,-1.527 -0.575,-1.394 -0.289,-1.328 -0.957,-1.168 -0.332,0.57 0.605,3.141 -1.305,3.266 -0.344,-0.516 -1.305,-2.817 -1.527,-3.555 1.019,-0.094 1.402,0.852 1.664,1.258 l 0.515,-0.199 c -0.078,-0.567 -0.586,-1.575 -0.82,-2.102 -0.449,-1.027 -0.625,-2.019 -1.16,-1.691 -0.367,0.5 0.359,1.144 -0.461,2.05 -0.293,-0.253 -0.598,-1.183 -0.777,-1.625 -0.227,-0.531 -0.551,-1.121 -0.614,-1.699 M 19.77,94.887 c -0.356,0.199 -1.145,1.09 -1.567,1.426 -0.371,0.292 -0.461,0.41 -0.836,0.761 l -2.402,2.172 c -0.66,0.578 -1.16,0.692 -0.977,1.422 0.137,0.551 0.071,0.305 0.317,0.32 l 6.992,-2.277 c 2.562,-0.844 0.683,0.453 2.195,0.008 -0.062,-0.461 -0.199,-0.715 -0.34,-1.137 -0.183,-0.559 -0.097,-0.812 -0.687,-0.785 -0.254,0.301 -0.039,0.34 -0.254,0.668 -0.262,0.387 -3.848,1.5 -4.254,1.598 l 3.348,-3.094 c 0.265,-0.223 0.851,-0.781 1.011,-1.02 l -0.773,-2.148 c -0.723,0.203 -0.285,0.215 -0.563,0.887 -0.507,0.324 -3.324,1.16 -4.097,1.406 -0.723,0.238 -1.36,0.453 -2.059,0.691 -1.941,0.645 -1.16,-0.191 -2.074,-0.113 -0.043,0.391 0.188,1.289 0.332,1.68 0.492,1.328 0.777,-0.461 0.777,-0.469 z m 116.519,3.047 c 0.086,0.828 1.074,1.89 1.637,2.351 2.117,1.711 8.406,2.039 7.945,-1.297 -0.539,-3.886 -10.035,-5.207 -9.582,-1.054 m 2.68,-0.965 c 1.281,0.238 5.996,1.297 6.258,2.355 0.382,1.559 -3.7,0.293 -4.422,0.129 -1.391,-0.32 -3.094,-0.859 -3.942,-1.719 0.004,-0.621 0.047,-0.765 0.668,-0.859 0.485,-0.07 0.961,0.008 1.438,0.094 M 21.004,91.742 c 0.516,-1.207 -0.453,-2.183 -1.234,-2.566 -2.68,-1.305 -7.332,0.406 -8.071,2.808 -1.211,3.977 7.485,4.055 9.305,-0.242 M 20.52,90.555 c 0.039,1.351 -2.395,1.793 -3.645,2.129 -0.77,0.214 -4.168,1.296 -4.578,0.39 -0.52,-1.156 2.648,-1.844 3.543,-2.109 1.281,-0.356 3.453,-1.121 4.68,-0.41 m 56.582,54.324 c 0.441,-2.281 -0.079,-5.035 -1.645,-5.934 -3.66,-2.09 -5.836,7.66 -2.281,9.379 2.258,1.09 3.594,-1.703 3.926,-3.445 m -2.153,-5.512 c 0.731,1.067 0.418,3.34 0.301,4.821 -0.062,0.898 -0.215,4.339 -1.496,3.679 -1,-0.523 -0.332,-5.699 -0.117,-7.008 0.16,-0.933 0.23,-1.605 1.312,-1.492 m 63.414,-51.398 c 0.207,0.859 1.235,1.636 1.965,2.011 0.75,0.391 2.235,0.668 3.156,0.747 2.086,0.191 5.204,-1.004 4.598,-3.11 -0.578,-1.996 -3.195,-2.687 -5.09,-2.808 -2.14,-0.133 -5.183,0.75 -4.629,3.16 m 0.551,-0.949 c 1.059,-0.762 3.219,-0.348 4.66,-0.165 1.86,0.227 4.031,0.165 3.922,1.622 -1.379,0.89 -5.402,0.214 -7.109,-0.153 -0.789,-0.164 -1.633,-0.332 -1.473,-1.304 M 10.496,74.629 c 0.813,0.215 6.07,0.629 7.598,0.758 2.195,0.191 0.808,0.812 1.851,0.875 0.285,-0.407 0.36,-1.528 0.301,-2.102 -1.129,-0.125 -0.07,0.383 -1.121,0.492 l -4.469,-0.363 5.758,-1.887 0.168,-2.464 c -0.668,0.113 -0.492,0.128 -0.707,0.644 l -6.91,-0.461 c -1.344,-0.117 -1.188,-0.547 -1.227,-0.613 -0.215,-0.363 0.223,-0.153 -0.269,-0.309 -0.461,0.125 -0.27,0 -0.375,0.391 -0.024,0.101 -0.055,0.492 -0.071,0.625 -0.082,0.683 -0.199,0.812 -0.007,1.156 0.859,0.102 0.199,0.07 0.64,-0.391 0.282,-0.292 0.383,-0.23 0.84,-0.207 l 5.59,0.54 -7.5,2.492 z m 73.707,64.976 c 0,0.743 0.442,-0.199 0.668,0.813 0.067,0.277 0.098,0.914 0.129,1.246 l 0.535,4.941 c 0.278,2.543 -0.336,0.801 -0.336,2.176 1.805,-0.054 3.418,-0.156 4.422,-1.215 1.867,-1.972 1.457,-6.64 -0.969,-8.078 -0.734,-0.429 -1.273,-0.527 -2.261,-0.414 -1.024,0.125 -2.188,0.063 -2.188,0.531 m 3.367,8.352 c -0.445,-0.781 -0.898,-8.031 -0.867,-8.113 0.262,-0.746 1.199,0.054 1.375,0.437 0.531,1.176 0.867,4.481 0.867,5.735 0,1.152 -0.246,1.964 -1.375,1.941 m -36.879,-13.32 c 0.446,-0.528 0.938,-1.571 0.5,-2.457 -0.429,-0.879 -2.711,-2.434 -3.64,-2.852 -0.613,0.742 0.215,0.25 -0.11,1.125 -0.082,0.207 -0.519,0.785 -0.687,1.039 l -3.453,5.149 c -0.571,0.539 -0.508,-0.223 -1,0.445 0.222,0.293 2.148,1.699 2.562,1.676 0.469,-0.785 -0.39,-0.387 0.094,-1.266 L 47,134.391 c 1.09,1.214 -0.355,1.937 -1.094,3.925 -0.32,0.86 0.11,1.711 0.887,1.934 0.812,0.23 1.598,-0.492 1.727,-1.051 -0.86,-0.429 -0.231,0.305 -1.168,0.383 0.16,-0.996 2.125,-3.031 0.812,-4.637 0.914,0.024 1.813,0.516 2.527,-0.308 m -3.41,-0.742 c 0.5,-1.032 1.192,-1.805 1.813,-2.766 1.867,0.285 0.269,2.621 -0.539,2.965 -0.528,0.215 -0.848,-0.055 -1.274,-0.199 m 93.231,-21.297 c -0.453,0.097 -0.145,0.168 -0.492,0.246 -0.454,0.09 -2.372,-1.289 -3.477,-1.637 l 0.762,-1.227 c 0.687,0.184 1.41,0.661 2.07,0.997 0.23,0.117 0.781,0.355 0.969,0.515 0.691,0.555 -0.117,0.508 0.566,0.922 0.317,-0.07 0.278,-0.215 0.461,-0.578 0.399,-0.82 1.145,-1.824 0.692,-2.039 -0.547,-0.262 -0.055,0.312 -0.809,0.121 l -2.055,-1.059 c -0.961,-0.484 -1.844,-0.921 -2.816,-1.418 -0.817,-0.41 -1.844,-0.711 -2.043,-1.183 l -0.309,-0.676 c -0.5,0.254 -0.765,1.074 -1.019,1.559 -0.039,0.074 -0.414,0.812 -0.422,0.836 -0.031,0.183 -0.102,0.207 0.191,0.316 0.907,0.336 -0.078,-0.707 1.344,0.035 l 2.516,1.297 -0.711,1.27 c -0.578,-0.18 -1.246,-0.637 -1.852,-0.922 -1.844,-0.875 -0.949,-0.7 -1.328,-1.375 -0.516,-0.063 -0.367,-0.153 -0.629,0.414 -0.344,0.73 -0.906,1.543 -1.027,2.097 1.14,0.231 0.519,-0.339 1.281,-0.023 l 3.277,1.672 c 0.75,0.379 1.45,0.73 2.203,1.113 2.586,1.285 0.415,0.817 1.774,1.484 l 1.195,-2.519 z M 24.879,102.387 c -0.672,0.316 0.254,0.429 -0.734,1 l -5.981,3.676 c -0.754,0.246 -0.828,-0.524 -0.82,-0.637 0.09,-0.668 6.394,-5.098 7.031,-5.867 l -0.301,-0.821 c -0.996,0.055 -5.863,1.176 -7.437,1.52 -1.461,0.316 -1.52,-0.153 -2.36,-0.012 0.118,0.559 0.395,1.004 0.641,1.488 0.652,1.282 0.711,-0.437 0.711,-0.437 0.609,-0.324 0.824,-0.438 1.684,-0.508 l 0.781,1.656 c -2.801,2.028 -0.91,0.516 -2.356,0.809 0.086,1.242 3.387,6.332 3.723,7.238 0.469,-0.121 1.121,-0.508 1.519,-0.73 1.145,-0.66 1.176,-0.383 1.274,-0.973 -0.828,-0.547 -2.992,0.961 -3.484,-0.867 0.046,-0.461 3.23,-2.156 3.753,-2.457 l 2.887,-1.699 c 0.754,-0.223 0.348,0.484 0.945,0.156 0.297,-0.285 -0.691,-1.621 -1.027,-2.195 -0.23,-0.387 -0.187,-0.454 -0.449,-0.34 m -3.727,-1.434 c -0.355,0.352 -2.168,1.848 -2.504,1.996 l -0.64,-1.351 z"
         style="fill:#e63230;fill-opacity:1;fill-rule:evenodd;stroke:none"
         id="path340" />
      <path
         d="m 122.992,43.766 c 0.668,-0.239 1.227,-0.969 1.465,-1.864 0.379,-1.484 -1.227,-4.148 -1.949,-4.859 -0.344,-0.316 -1.442,-1.383 -1.981,-1.352 -0.007,0.391 0.157,0.36 0.438,0.719 0.277,0.356 0.293,0.403 0.375,0.977 0.195,1.398 0.648,4.144 1.293,5.375 0.097,0.183 0.152,0.258 0.215,0.476 z M 57.086,16.551 c 2.012,-0.453 0.691,-0.113 2.363,-0.684 0.348,0.246 0.668,0.801 0.801,1.375 l -2.875,1.559 c -0.687,0.293 -0.824,0.031 -1.434,0.156 0.43,0.926 2.543,3.168 3.516,1.465 0.285,-0.5 0.57,-0.859 0.992,-1.121 0.129,1.183 -0.691,2.34 -1.222,2.84 -0.321,0.297 -0.805,0.582 -0.622,1.289 0.149,0.605 0.469,0.961 1.075,1.019 0.3,-0.09 1.082,-1.433 1.629,-1.765 0.175,1.089 0.652,4.101 1.656,4.254 0.23,-1.504 -0.32,-3.793 -0.481,-5.329 -0.093,-0.843 0.512,-1.382 0.844,-2.004 0.567,-1.019 0.481,-1.25 0.496,-2.523 -0.289,0.238 -0.312,0.691 -0.683,1.418 -0.297,0.555 -0.543,0.887 -0.957,1.207 -0.313,-2.926 1.457,-2.934 0.054,-3.578 -1,-0.461 0.207,-0.399 -0.824,-0.789 -0.176,-0.07 -0.297,-0.063 -0.566,-0.192 0.476,-0.441 1.617,-0.5 1.965,-1.007 0.453,-1.305 -0.731,-2.157 -1.821,-2.348 0.184,1.066 0.309,0.867 -0.367,1.551 -0.707,0.715 -1.988,2.187 -2.84,2.664 -0.367,0.215 -0.437,0.168 -0.699,0.543 m 8.422,-5.641 c 1.019,1.012 0.73,-0.406 1.496,2.985 0.207,0.945 0.699,2.918 0.699,3.816 -0.551,0.437 -3.008,2.402 -3.621,2.418 0.082,-0.723 1.762,-2.195 2.301,-2.617 0.437,-0.348 0.652,-0.34 0.621,-1.145 -1.406,-1.043 -1.426,-0.461 -1.981,-0.754 0.309,-0.898 1.68,-0.558 1.766,-1.726 -0.262,-0.504 -0.723,-0.844 -1.391,-0.914 -0.64,-0.067 -1.632,0.015 -2.078,0.347 l 0.297,0.293 c 0.309,0.192 0.707,0.192 1.285,0.75 -0.254,1.129 -1.066,1.203 -0.769,2.418 l 1.09,0.239 c 0.261,1.281 -3.047,3.628 -1.571,4.57 1.102,0.711 2.438,-1.547 4.36,-2.297 0.273,1.266 1.582,7.477 2.562,7.34 0.684,-1.699 -0.89,-7.149 -0.773,-8.141 0.09,-0.789 1.387,-1.289 2.086,-1.554 1.804,-0.676 0.117,-1.809 -0.938,-1.293 -0.527,0.253 -0.926,0.668 -1.527,0.851 -0.805,-1.848 -0.129,-6.183 -1.965,-6.523 -0.918,-0.176 -1.664,0.328 -1.949,0.937 m 60.984,16.735 c 1.567,0.293 1.59,0.293 -0.105,1.664 l -2.25,1.757 c -0.328,0.262 -0.707,0.547 -1.25,0.457 -0.86,-0.132 -0.571,-0.253 -1.262,-0.578 -2.555,-1.187 -1.734,-1.187 -2.387,-1.55 -0.328,0.593 -0.476,2.871 0.723,3.664 l 0.414,0.312 c -1.059,0.438 -1.273,0.774 -2.762,0.906 -1.324,0.121 -2.011,0.121 -3.117,-0.324 0.113,-0.551 0.074,-0.121 0.266,-0.621 l -0.934,0.215 c -0.031,0.004 -0.062,0.016 -0.086,0.023 -0.023,0.008 -0.062,0.032 -0.078,0.039 l -0.16,0.086 c 0.598,1.336 1.652,2.078 3.004,2.707 1.488,0.684 4.488,-1.316 6.308,-1.964 1.504,-0.536 4.239,1.507 5.672,0.968 0.117,-0.047 0.891,-0.367 1.008,-0.445 0.031,-1.867 -1.781,-2.141 -2.359,-3.309 1.383,-0.968 2.601,-1.589 2.25,-2.957 -0.121,-0.461 -0.614,-1.519 -0.989,-1.672 -0.316,-0.125 -0.675,-0.023 -1.007,0.079 -0.95,0.296 -0.789,0.281 -0.899,0.543 m 0.203,4.796 c -0.054,0.032 0.297,0.34 -0.418,0.047 -0.152,-0.054 -0.121,-0.09 -0.257,-0.23 0.496,-0.168 0.414,-0.207 0.675,0.183 m 15.797,17.95 c -0.554,0.039 -1.422,0.804 -1.82,1.214 -0.598,0.598 -0.781,0.926 -0.883,1.997 -0.344,-0.125 -0.519,-0.485 -1.074,-0.715 -0.461,-0.184 -0.981,-0.137 -1.41,-0.293 0.168,-0.637 0.718,-0.739 0.988,-1.36 -0.988,-0.175 -2.082,0.875 -3.254,0.954 -1.113,0.07 -0.894,-0.016 -1.422,0.714 -0.269,0.368 -0.789,0.996 -0.285,1.496 0.395,0.379 1.297,-0.191 1.789,-0.324 3.426,-1.004 3.254,-0.84 4.555,0.953 0.32,0.43 0.789,0.832 1.148,1.258 1.324,1.547 3.41,2.528 3.442,3.395 -0.645,0.125 -1.129,-0.176 -1.653,-0.375 -0.972,-0.375 -0.621,-0.332 -1.203,-0.86 -1.246,-1.113 -1.535,-1.152 -2.543,-2.496 -0.527,-0.699 -1.633,-0.461 -1.844,0.375 -0.25,0.977 1.184,1.192 1.817,2.145 -0.57,0.011 -0.785,-0.18 -1.254,-0.102 -0.484,0.071 -0.582,0.332 -0.852,0.531 -0.296,-0.308 -0.554,-0.429 -0.867,-0.746 -0.836,-0.843 -1.496,-2.086 -2.726,-2.039 -0.352,0.45 -0.375,0.758 -0.668,1.379 -0.223,0.477 -0.477,0.832 -0.559,1.391 -0.141,1.004 -0.461,2.992 0.223,3.57 0.789,0.66 1.773,0.883 2.992,0.559 2.051,-0.559 1.758,-1.043 2.75,-1.25 0.414,0.343 0.469,0.543 0.805,0.898 0.367,0.391 0.421,0.735 0.914,0.852 0.597,-0.438 0.574,-1.457 0.054,-2.043 -0.285,-0.321 -1.168,-0.989 -1.129,-1.473 0.622,-0.332 1.219,0.008 1.797,0.223 1.012,0.375 0.653,0.316 1.602,0.054 l 1.66,1.719 c 0.93,0.606 1.703,0.313 2.059,-0.613 0.527,-1.359 -0.684,-2.672 -1.407,-3.465 -0.16,-0.176 -0.222,-0.23 -0.398,-0.398 -0.379,-0.368 -0.184,-0.016 -0.391,-0.493 0.668,0.161 0.645,0.372 1.227,0.563 1.242,0.398 2.855,0.734 3.262,-0.785 0.308,-1.172 -0.114,-2.043 -0.723,-2.555 -0.859,-0.715 -1.27,-0.531 -2.445,-0.523 -0.012,-0.762 0.136,-1.184 -0.477,-1.641 -0.129,0.176 0,-0.078 -0.129,0.281 l -0.23,0.668 c -0.364,0.539 -1.598,0.754 -1.129,2.465 -0.871,-0.031 -1.645,-0.262 -2.106,-1 0.485,-0.156 1.016,-0.902 1.313,-1.203 0.762,-0.781 1.144,-0.762 1.273,-1.164 -0.328,-0.125 -0.765,-0.109 -1.168,-0.063 z m 0.981,5.297 c 0.203,-0.297 0.347,-0.391 0.707,-0.575 0.468,-0.254 1.175,-0.668 1.918,-0.531 0.386,0.063 2.211,1.66 -0.368,1.258 -0.718,-0.113 -1.503,-0.09 -2.257,-0.152 m -10.293,2.136 c 0.39,-0.039 1.543,0.922 1.828,1.188 0.726,0.66 1.402,0.867 1.41,1.758 -0.957,0.523 -2.863,2.187 -3.359,-0.844 -0.286,-1.727 0.043,-1.856 0.066,-2.031 0.004,-0.036 0.031,-0.047 0.055,-0.071 M 38.492,24.574 c -0.316,-0.59 -0.246,-0.883 -1.058,-1.039 -0.723,-0.156 -1.137,0.047 -1.707,0.293 -0.688,0.301 -0.836,0.219 -1.211,0.852 -0.231,0.371 -0.563,0.945 -0.555,1.422 0.363,0.039 4.707,-1.266 3.281,1.082 -0.722,1.199 -1.508,2.964 -2.121,3.601 l -0.176,0.192 c -0.898,-0.352 -0.957,-0.485 -1.136,-1.52 -0.114,-0.613 -0.082,-1.844 -0.559,-2.211 -0.875,-0.355 -1.598,0.152 -1.91,0.676 -0.363,0.613 -0.41,1.543 -0.547,2.308 -0.277,1.528 -0.824,1.79 -0.016,1.723 0.797,-0.062 1.43,-0.676 2.043,-0.906 1.09,1.527 3.192,0.891 3.469,2.394 -1.43,0.286 -2.785,-1.089 -3.687,-0.605 -0.274,0.859 0.156,0.941 0.64,1.195 l 4.836,5.004 c 0.875,0.875 1.113,1.254 2.703,0.664 0.129,-1.312 -0.367,-0.586 -1.511,-2.082 -0.54,-0.715 -0.856,-1.652 -1.579,-2.004 0.086,0.621 0.387,0.961 0.555,1.543 -0.43,-0.215 -2.219,-2.281 -2.379,-2.562 l 1.871,0.183 c 0.395,-1.214 0.063,-2.672 -1.25,-3.3 L 35.922,31.16 c 1.289,-0.078 1.18,-0.375 1.726,-1.289 0.391,-0.652 0.719,-1.281 1.043,-1.902 0.907,0.621 3.075,6.652 3.196,7.828 0.051,0.555 -0.203,0.945 0.043,1.312 0.617,-0.105 0.609,-0.707 0.668,-1.832 0.019,-0.64 -0.192,-1.66 -0.313,-2.273 -0.125,-0.691 -0.254,-1.406 -0.43,-2.098 -0.171,-0.699 -0.539,-1.218 -0.73,-1.902 0.23,-0.484 0.684,-0.977 1.391,-1.008 0.558,0.531 2.601,4.371 2.664,5.613 l -1.907,0.293 c 0.184,0.516 0.938,0.653 1.438,0.782 0.547,0.14 1.129,0.621 1.644,0.39 0.129,-0.097 0.247,-1.273 0.184,-1.648 -0.215,-1.219 -1.121,-3.356 -1.637,-4.414 -0.437,-0.899 -0.691,-2.149 -1.609,-2.41 -0.648,-0.18 -1.078,-0.055 -1.574,0.242 -0.649,0.386 -0.531,0.746 -1.047,1.062 l -1.113,-1.66 c 0.222,-0.336 0.355,-0.672 0.601,-0.949 0.274,-0.301 0.535,-0.492 0.789,-0.82 0.215,-0.286 1.074,-1.868 0.961,-2.192 -0.133,-0.406 -0.652,-0.336 -1.129,-0.285 -1.215,0.125 -1.629,1.637 -2.066,2.305 -0.016,0.015 -0.039,0.047 -0.047,0.07 -0.016,0.016 -0.039,0.047 -0.055,0.074 z m 55.391,-13.25 c -0.184,0.391 0.097,0.59 0.281,0.938 0.238,0.437 0.246,0.734 0.133,1.211 -0.262,1.113 -0.406,1.511 -1.121,1.75 -0.793,0.269 -2.434,0.808 -3.301,0.929 -0.57,0.082 -0.914,-0.047 -1.477,0.008 0.094,0.582 0.809,2.043 1.739,2.051 0.582,0.008 0.75,-0.316 1.32,-0.477 0.598,-0.175 1.09,-0.269 1.719,-0.3 -0.446,1.867 -0.446,1.89 -2.067,2.582 -0.566,0.238 -1.035,0.535 -1.55,0.742 -0.676,0.262 -1.321,0.164 -1.809,0.578 -0.07,1.203 1.234,1.734 1.809,2.285 0.722,0.707 0.937,1.66 1.48,2.625 0.969,-0.105 1.262,-0.551 1.563,-1.027 0.98,0 2.07,0.109 3.031,0.023 1.996,-0.183 2.094,-1.023 2.433,-0.047 0.063,0.184 0.055,0.184 0.153,0.414 0.16,0.368 0.199,0.586 0.324,0.938 0.219,0.605 0.648,1.074 1.195,1.32 0.739,0.336 1.461,0.047 2.114,0.184 0.75,0.156 0.851,0.699 1.781,0.484 -0.223,-1.805 -3.336,-3.586 -4.047,-5.144 0.852,-1.887 2.117,-2.547 0.867,-3.567 -0.644,-0.531 -0.605,-0.261 -1.219,-0.554 0.582,-1.657 3.731,-1.137 4.059,-1.829 0.055,-0.628 -0.238,-1.003 -0.758,-1.179 -0.531,-0.184 -1.047,-0.309 -1.66,-0.203 0.184,-0.844 1.074,-2.055 0.977,-2.969 -0.11,-1.008 -1.184,-1.684 -2.399,-1.438 -0.051,0.739 0.985,0.645 0.449,2.282 -0.14,0.437 -0.785,1.714 -1.039,2.05 -0.215,0.278 -1.773,0.692 -2.25,0.844 -1.011,0.309 -1.258,0.606 -1.992,1.059 0.465,-1.457 0.504,-0.492 1.563,-1.809 -0.114,-0.808 -0.645,-0.633 -0.457,-1.379 0.136,-0.504 0.457,-1.086 0.488,-1.617 0.078,-1.105 -1.418,-1.996 -2.332,-1.758 m -1.129,13.188 c 1.234,-0.008 3.523,-0.731 4.184,-1.414 0.191,-0.688 -0.606,-1.356 -1.137,-1.594 -1.168,-0.539 -1.805,-0.172 -1.883,-0.984 0.43,-0.176 2.383,0.293 2.973,0.46 -0.262,-1.25 0.414,-1.496 0.636,-2.648 -1.136,-0.113 -1.257,-0.965 -2.14,-0.223 -0.66,0.555 -0.946,0.739 -1.313,1.668 -0.367,0.926 -1.238,3.805 -1.32,4.735 m -2.68,-1.598 c 0.239,-0.574 0.543,-0.703 1.02,-1.074 0.469,-0.367 0.515,-0.672 1.078,-0.953 l -0.785,3.066 c -0.469,-0.055 -1.153,-0.738 -1.313,-1.039 m 7.18,-1.672 c 0.527,-0.191 1.141,-0.445 1.769,-0.429 0,0.476 -0.535,1.003 -0.875,1.179 -0.429,-0.152 -0.558,-0.383 -0.894,-0.75 m -77.84,39.899 c 0.875,0.375 1.734,0.718 2.59,1.074 1.094,0.445 1.359,0.851 2.711,0.414 1.656,-0.531 1.879,-2.602 2.613,-4.715 0.438,-1.242 0.262,-1.726 1.145,-2.523 0.832,-0.746 1.804,-0.332 2.679,-0.969 -0.261,-1.223 -1.347,-1.902 -2.418,-2.379 -2.949,-1.305 -7.285,-2.602 -9.64,-4.676 -0.653,-0.582 -0.914,-0.547 -1.821,-0.199 -2.289,0.883 -3.046,0.703 -3.523,3.691 -1.043,6.528 0.859,4.852 1.617,7.262 -0.527,0.192 -0.797,0.133 -1.035,0.652 z m 1.262,-1.383 3.629,1.535 0.652,-1.934 c -0.336,0.297 -0.867,0.543 -1.402,0.153 -0.485,-0.356 -0.348,-0.813 -0.446,-1.504 -0.453,0.176 -1.007,0.543 -1.558,0.574 -0.446,0.023 -0.684,0 -0.985,-0.199 l -0.722,-0.43 c -0.614,-0.398 -0.59,-1.781 -0.887,-2.555 -0.141,-0.382 -0.195,-0.308 -0.617,-0.492 -0.36,0.453 -0.27,1.657 -2.309,1.61 0.274,-1.465 0.543,-1.766 0.114,-3.344 -0.161,-0.57 0.093,-0.977 0.46,-1.289 0.551,-0.469 0.844,-0.403 1.657,-0.363 0.324,1.203 0.254,2.195 1.453,2.566 l 1.035,-0.555 c 0.23,-0.113 0.063,0.016 0.238,-0.133 -0.191,-0.671 -0.707,-1.488 0.653,-1.972 0.371,-0.137 0.914,-0.137 1.175,0.125 0.676,0.644 -0.359,1.437 -0.558,1.804 l 3.668,1.036 c 0.207,1.121 -0.477,1.972 -0.723,4.117 l 0.324,-0.684 c 0.383,-1.176 0.703,-3.293 1.774,-3.941 l 0.457,-0.246 c 0.019,-0.02 0.055,-0.043 0.078,-0.051 l 0.148,-0.109 c -2.41,-1.012 -4.605,-2.063 -7.156,-3.032 l -3.633,-1.519 c -2.187,-0.699 -1.449,1.687 -1.718,3.199 -0.262,1.445 -1.782,2.082 -1.122,3.648 0.59,1.399 1.551,1.95 2.801,2.356 1.383,0.445 2.266,1.152 3.52,1.629 m 0.894,-5.996 c 0.555,0.98 1.078,1.398 1.809,2.035 0.168,0.144 0.266,0.223 0.394,0.324 0.34,0.281 0.094,0.367 0.325,0.137 0.199,-0.199 0.14,-0.82 -0.016,-1.051 -0.137,-0.203 -1.809,-1.375 -2.512,-1.445 m -0.925,2.504 c 0.668,-0.094 0.843,0.105 1.121,0.558 -0.168,0.43 -0.246,0.614 -0.778,0.66 -0.277,-0.336 -0.367,-0.605 -0.343,-1.218"
         style="fill:#e63230;fill-opacity:1;fill-rule:evenodd;stroke:none"
         id="path342" />
    </g>
  </g>
</svg>
